<svg xmlns="http://www.w3.org/2000/svg" xmlns:xlink="http://www.w3.org/1999/xlink" width="500" zoomAndPan="magnify" viewBox="0 0 375 374.999991" height="500" preserveAspectRatio="xMidYMid meet" version="1.2"><defs><clipPath id="aca2ae6b56"><path d="M 129 88.105469 L 232.5 88.105469 L 232.5 217.855469 L 129 217.855469 Z M 129 88.105469 "/></clipPath><clipPath id="b4460c152a"><path d="M 201.179688 189.992188 L 201.179688 169.988281 L 152.941406 169.988281 L 152.941406 181.527344 C 155.894531 182.070312 158.320312 184.121094 159.390625 186.851562 L 177.234375 186.851562 C 178.210938 185.5 179.800781 184.617188 181.597656 184.617188 C 184.566406 184.617188 186.972656 187.023438 186.972656 189.992188 C 186.972656 192.960938 184.566406 195.367188 181.597656 195.367188 C 179.800781 195.367188 178.210938 194.484375 177.234375 193.128906 L 159.390625 193.128906 C 158.75 194.765625 157.625 196.152344 156.191406 197.125 C 156.976562 198.695312 158.011719 200.121094 159.242188 201.351562 C 162.160156 204.269531 166.183594 206.082031 170.605469 206.082031 L 202.867188 206.082031 C 204.121094 202.878906 207.238281 200.613281 210.882812 200.613281 C 214.53125 200.613281 217.648438 202.878906 218.902344 206.082031 C 219.28125 207.054688 219.492188 208.113281 219.492188 209.21875 C 219.492188 213.972656 215.636719 217.824219 210.882812 217.824219 C 207.238281 217.824219 204.121094 215.558594 202.867188 212.359375 L 170.605469 212.359375 C 164.449219 212.359375 158.855469 209.84375 154.800781 205.789062 C 152.722656 203.714844 151.050781 201.230469 149.910156 198.472656 C 146.328125 197.863281 143.5 195.035156 142.886719 191.449219 C 140.132812 190.3125 137.648438 188.640625 135.570312 186.5625 C 131.515625 182.511719 129 176.917969 129 170.765625 C 129 166.628906 130.144531 162.742188 132.128906 159.402344 C 132.691406 158.453125 133.324219 157.546875 134.019531 156.691406 C 133.71875 155.816406 133.558594 154.875 133.558594 153.898438 C 133.558594 152.453125 133.914062 151.089844 134.542969 149.894531 C 133.640625 148.863281 132.832031 147.746094 132.128906 146.5625 C 130.144531 143.222656 129 139.335938 129 135.199219 C 129 129.046875 131.515625 123.453125 135.570312 119.402344 C 137.648438 117.324219 140.132812 115.652344 142.886719 114.515625 C 143.5 110.929688 146.328125 108.101562 149.910156 107.492188 C 151.050781 104.734375 152.722656 102.253906 154.800781 100.175781 C 158.855469 96.121094 164.449219 93.605469 170.605469 93.605469 L 202.867188 93.605469 C 204.121094 90.40625 207.238281 88.136719 210.882812 88.136719 C 214.53125 88.136719 217.648438 90.40625 218.902344 93.605469 C 219.28125 94.578125 219.492188 95.636719 219.492188 96.746094 C 219.492188 97.851562 219.28125 98.910156 218.902344 99.882812 C 217.648438 103.085938 214.53125 105.351562 210.882812 105.351562 C 207.238281 105.351562 204.121094 103.085938 202.867188 99.882812 L 170.605469 99.882812 C 166.183594 99.882812 162.160156 101.695312 159.242188 104.613281 C 158.011719 105.84375 156.976562 107.269531 156.191406 108.839844 C 157.625 109.8125 158.75 111.203125 159.390625 112.835938 L 177.234375 112.835938 C 178.210938 111.480469 179.800781 110.597656 181.597656 110.597656 C 184.566406 110.597656 186.972656 113.003906 186.972656 115.972656 C 186.972656 118.941406 184.566406 121.347656 181.597656 121.347656 C 179.800781 121.347656 178.210938 120.464844 177.234375 119.113281 L 159.390625 119.113281 C 158.320312 121.84375 155.894531 123.894531 152.941406 124.4375 L 152.941406 135.976562 L 190.078125 135.976562 C 190.714844 134.257812 192.371094 133.03125 194.3125 133.03125 C 196.808594 133.03125 198.832031 135.050781 198.832031 137.546875 C 198.832031 138.097656 198.730469 138.625 198.550781 139.113281 C 197.914062 140.835938 196.257812 142.058594 194.3125 142.058594 C 192.371094 142.058594 190.714844 140.835938 190.078125 139.113281 L 149.804688 139.113281 L 149.804688 124.4375 C 147.492188 124.011719 145.507812 122.664062 144.238281 120.792969 C 142.667969 121.574219 141.242188 122.609375 140.007812 123.839844 C 137.089844 126.757812 135.28125 130.777344 135.28125 135.199219 C 135.28125 138.183594 136.097656 140.980469 137.523438 143.375 C 138.035156 144.234375 138.621094 145.042969 139.277344 145.789062 C 140.179688 145.46875 141.152344 145.292969 142.167969 145.292969 C 146.382812 145.292969 149.894531 148.324219 150.632812 152.328125 L 209.148438 152.328125 L 209.148438 120.207031 C 207.429688 119.570312 206.203125 117.914062 206.203125 115.972656 C 206.203125 113.480469 208.222656 111.457031 210.71875 111.457031 C 213.210938 111.457031 215.234375 113.480469 215.234375 115.972656 C 215.234375 117.914062 214.007812 119.570312 212.289062 120.207031 L 212.289062 135.976562 L 223.75 135.976562 C 224.386719 134.257812 226.042969 133.03125 227.984375 133.03125 C 230.480469 133.03125 232.503906 135.050781 232.503906 137.546875 C 232.503906 140.039062 230.480469 142.058594 227.984375 142.058594 C 226.042969 142.058594 224.386719 140.835938 223.75 139.113281 L 212.289062 139.113281 L 212.289062 155.46875 L 150.632812 155.46875 C 149.894531 159.472656 146.382812 162.507812 142.167969 162.507812 C 140.738281 162.507812 139.386719 162.15625 138.203125 161.542969 C 137.964844 161.882812 137.734375 162.230469 137.523438 162.589844 C 136.097656 164.984375 135.28125 167.78125 135.28125 170.765625 C 135.28125 175.1875 137.089844 179.207031 140.011719 182.125 C 141.242188 183.355469 142.667969 184.390625 144.238281 185.171875 C 145.507812 183.300781 147.492188 181.953125 149.804688 181.527344 L 149.804688 166.851562 L 215.8125 166.851562 C 216.449219 165.128906 218.105469 163.90625 220.046875 163.90625 C 221.992188 163.90625 223.644531 165.128906 224.28125 166.851562 C 224.464844 167.339844 224.5625 167.867188 224.5625 168.417969 C 224.5625 168.972656 224.464844 169.5 224.28125 169.988281 C 223.644531 171.707031 221.992188 172.933594 220.046875 172.933594 C 218.105469 172.933594 216.449219 171.707031 215.8125 169.988281 L 204.320312 169.988281 L 204.320312 188.421875 L 223.75 188.421875 C 224.386719 186.703125 226.042969 185.476562 227.988281 185.476562 C 230.480469 185.476562 232.503906 187.5 232.503906 189.992188 C 232.503906 192.484375 230.480469 194.503906 227.988281 194.503906 C 226.042969 194.503906 224.386719 193.28125 223.75 191.5625 L 201.179688 191.5625 Z M 201.179688 189.992188 "/></clipPath><linearGradient x1="1088.807704" gradientTransform="matrix(0.0147895,0,0,0.0147862,129.001863,88.138428)" y1="9361.583772" x2="6356.906459" gradientUnits="userSpaceOnUse" y2="-347.950704" id="54f2fd9800"><stop style="stop-color:#2f60ab;stop-opacity:1;" offset="0"/><stop style="stop-color:#2f61ab;stop-opacity:1;" offset="0.00390625"/><stop style="stop-color:#2f61ac;stop-opacity:1;" offset="0.0078125"/><stop style="stop-color:#3062ac;stop-opacity:1;" offset="0.0117187"/><stop style="stop-color:#3063ad;stop-opacity:1;" offset="0.015625"/><stop style="stop-color:#3063ad;stop-opacity:1;" offset="0.0195312"/><stop style="stop-color:#3064ad;stop-opacity:1;" offset="0.0234375"/><stop style="stop-color:#3065ae;stop-opacity:1;" offset="0.0273438"/><stop style="stop-color:#3065ae;stop-opacity:1;" offset="0.03125"/><stop style="stop-color:#3066af;stop-opacity:1;" offset="0.0351562"/><stop style="stop-color:#3067af;stop-opacity:1;" offset="0.0390625"/><stop style="stop-color:#3167b0;stop-opacity:1;" offset="0.0429688"/><stop style="stop-color:#3168b0;stop-opacity:1;" offset="0.046875"/><stop style="stop-color:#3169b1;stop-opacity:1;" offset="0.0507812"/><stop style="stop-color:#3169b1;stop-opacity:1;" offset="0.0546875"/><stop style="stop-color:#316ab2;stop-opacity:1;" offset="0.0585938"/><stop style="stop-color:#316bb2;stop-opacity:1;" offset="0.0625"/><stop style="stop-color:#316bb2;stop-opacity:1;" offset="0.0664062"/><stop style="stop-color:#316cb3;stop-opacity:1;" offset="0.0703125"/><stop style="stop-color:#326db3;stop-opacity:1;" offset="0.0742187"/><stop style="stop-color:#326db4;stop-opacity:1;" offset="0.078125"/><stop style="stop-color:#326eb4;stop-opacity:1;" offset="0.0820312"/><stop style="stop-color:#326fb5;stop-opacity:1;" offset="0.0859375"/><stop style="stop-color:#326fb5;stop-opacity:1;" offset="0.0898438"/><stop style="stop-color:#3270b6;stop-opacity:1;" offset="0.09375"/><stop style="stop-color:#3271b6;stop-opacity:1;" offset="0.0976562"/><stop style="stop-color:#3271b7;stop-opacity:1;" offset="0.101562"/><stop style="stop-color:#3372b7;stop-opacity:1;" offset="0.105469"/><stop style="stop-color:#3373b7;stop-opacity:1;" offset="0.109375"/><stop style="stop-color:#3373b8;stop-opacity:1;" offset="0.113281"/><stop style="stop-color:#3374b8;stop-opacity:1;" offset="0.117188"/><stop style="stop-color:#3375b9;stop-opacity:1;" offset="0.121094"/><stop style="stop-color:#3375b9;stop-opacity:1;" offset="0.125"/><stop style="stop-color:#3376ba;stop-opacity:1;" offset="0.128906"/><stop style="stop-color:#3377ba;stop-opacity:1;" offset="0.132812"/><stop style="stop-color:#3377bb;stop-opacity:1;" offset="0.136719"/><stop style="stop-color:#3478bb;stop-opacity:1;" offset="0.140625"/><stop style="stop-color:#3479bc;stop-opacity:1;" offset="0.144531"/><stop style="stop-color:#3479bc;stop-opacity:1;" offset="0.148438"/><stop style="stop-color:#347abc;stop-opacity:1;" offset="0.152344"/><stop style="stop-color:#347bbd;stop-opacity:1;" offset="0.15625"/><stop style="stop-color:#347bbd;stop-opacity:1;" offset="0.160156"/><stop style="stop-color:#347cbe;stop-opacity:1;" offset="0.164062"/><stop style="stop-color:#347dbe;stop-opacity:1;" offset="0.167969"/><stop style="stop-color:#357dbf;stop-opacity:1;" offset="0.171875"/><stop style="stop-color:#357ebf;stop-opacity:1;" offset="0.175781"/><stop style="stop-color:#357fc0;stop-opacity:1;" offset="0.179687"/><stop style="stop-color:#357fc0;stop-opacity:1;" offset="0.183594"/><stop style="stop-color:#3580c1;stop-opacity:1;" offset="0.1875"/><stop style="stop-color:#3581c1;stop-opacity:1;" offset="0.191406"/><stop style="stop-color:#3582c1;stop-opacity:1;" offset="0.195312"/><stop style="stop-color:#3582c2;stop-opacity:1;" offset="0.199219"/><stop style="stop-color:#3683c2;stop-opacity:1;" offset="0.203125"/><stop style="stop-color:#3684c3;stop-opacity:1;" offset="0.207031"/><stop style="stop-color:#3684c3;stop-opacity:1;" offset="0.210938"/><stop style="stop-color:#3685c4;stop-opacity:1;" offset="0.214844"/><stop style="stop-color:#3686c4;stop-opacity:1;" offset="0.21875"/><stop style="stop-color:#3686c5;stop-opacity:1;" offset="0.222656"/><stop style="stop-color:#3687c5;stop-opacity:1;" offset="0.226562"/><stop style="stop-color:#3688c6;stop-opacity:1;" offset="0.230469"/><stop style="stop-color:#3788c6;stop-opacity:1;" offset="0.234375"/><stop style="stop-color:#3789c6;stop-opacity:1;" offset="0.238281"/><stop style="stop-color:#378ac7;stop-opacity:1;" offset="0.242188"/><stop style="stop-color:#378ac7;stop-opacity:1;" offset="0.246094"/><stop style="stop-color:#378bc8;stop-opacity:1;" offset="0.25"/><stop style="stop-color:#378bc8;stop-opacity:1;" offset="0.257812"/><stop style="stop-color:#378cc9;stop-opacity:1;" offset="0.265625"/><stop style="stop-color:#378dc9;stop-opacity:1;" offset="0.273438"/><stop style="stop-color:#388dc9;stop-opacity:1;" offset="0.28125"/><stop style="stop-color:#388eca;stop-opacity:1;" offset="0.289062"/><stop style="stop-color:#388fca;stop-opacity:1;" offset="0.296875"/><stop style="stop-color:#388fcb;stop-opacity:1;" offset="0.302121"/><stop style="stop-color:#3890cb;stop-opacity:1;" offset="0.304688"/><stop style="stop-color:#3890cb;stop-opacity:1;" offset="0.3125"/><stop style="stop-color:#3891cc;stop-opacity:1;" offset="0.320312"/><stop style="stop-color:#3891cc;stop-opacity:1;" offset="0.328125"/><stop style="stop-color:#3892cd;stop-opacity:1;" offset="0.335938"/><stop style="stop-color:#3993cd;stop-opacity:1;" offset="0.34375"/><stop style="stop-color:#3993ce;stop-opacity:1;" offset="0.351562"/><stop style="stop-color:#3994ce;stop-opacity:1;" offset="0.359375"/><stop style="stop-color:#3995ce;stop-opacity:1;" offset="0.367188"/><stop style="stop-color:#3995cf;stop-opacity:1;" offset="0.375"/><stop style="stop-color:#3996cf;stop-opacity:1;" offset="0.382813"/><stop style="stop-color:#3997d0;stop-opacity:1;" offset="0.390625"/><stop style="stop-color:#3997d0;stop-opacity:1;" offset="0.398437"/><stop style="stop-color:#3a98d1;stop-opacity:1;" offset="0.40625"/><stop style="stop-color:#3a99d1;stop-opacity:1;" offset="0.414062"/><stop style="stop-color:#3a99d2;stop-opacity:1;" offset="0.421875"/><stop style="stop-color:#3a9ad2;stop-opacity:1;" offset="0.429688"/><stop style="stop-color:#3a9bd2;stop-opacity:1;" offset="0.4375"/><stop style="stop-color:#3a9bd3;stop-opacity:1;" offset="0.445313"/><stop style="stop-color:#3a9cd3;stop-opacity:1;" offset="0.453125"/><stop style="stop-color:#3b9dd4;stop-opacity:1;" offset="0.460938"/><stop style="stop-color:#3b9dd4;stop-opacity:1;" offset="0.46875"/><stop style="stop-color:#3b9ed5;stop-opacity:1;" offset="0.476563"/><stop style="stop-color:#3b9fd5;stop-opacity:1;" offset="0.484375"/><stop style="stop-color:#3b9fd6;stop-opacity:1;" offset="0.492188"/><stop style="stop-color:#3ba0d6;stop-opacity:1;" offset="0.5"/><stop style="stop-color:#3ba1d7;stop-opacity:1;" offset="0.507813"/><stop style="stop-color:#3ba1d7;stop-opacity:1;" offset="0.515625"/><stop style="stop-color:#3ca2d7;stop-opacity:1;" offset="0.523438"/><stop style="stop-color:#3ca3d8;stop-opacity:1;" offset="0.53125"/><stop style="stop-color:#3ca3d8;stop-opacity:1;" offset="0.539063"/><stop style="stop-color:#3ca4d9;stop-opacity:1;" offset="0.546875"/><stop style="stop-color:#3ca5d9;stop-opacity:1;" offset="0.554688"/><stop style="stop-color:#3ca5da;stop-opacity:1;" offset="0.5625"/><stop style="stop-color:#3ca6da;stop-opacity:1;" offset="0.570313"/><stop style="stop-color:#3da7db;stop-opacity:1;" offset="0.578125"/><stop style="stop-color:#3da7db;stop-opacity:1;" offset="0.585938"/><stop style="stop-color:#3da8db;stop-opacity:1;" offset="0.59375"/><stop style="stop-color:#3da9dc;stop-opacity:1;" offset="0.601563"/><stop style="stop-color:#3da9dc;stop-opacity:1;" offset="0.609375"/><stop style="stop-color:#3daadd;stop-opacity:1;" offset="0.617188"/><stop style="stop-color:#3dabdd;stop-opacity:1;" offset="0.625"/><stop style="stop-color:#3dabde;stop-opacity:1;" offset="0.632812"/><stop style="stop-color:#3eacde;stop-opacity:1;" offset="0.640625"/><stop style="stop-color:#3eaddf;stop-opacity:1;" offset="0.648438"/><stop style="stop-color:#3eaddf;stop-opacity:1;" offset="0.65625"/><stop style="stop-color:#3eaedf;stop-opacity:1;" offset="0.664063"/><stop style="stop-color:#3eafe0;stop-opacity:1;" offset="0.671875"/><stop style="stop-color:#3eb0e0;stop-opacity:1;" offset="0.679688"/><stop style="stop-color:#3eb0e1;stop-opacity:1;" offset="0.6875"/><stop style="stop-color:#3eb1e1;stop-opacity:1;" offset="0.695312"/><stop style="stop-color:#3fb2e2;stop-opacity:1;" offset="0.697879"/><stop style="stop-color:#3fb2e2;stop-opacity:1;" offset="0.703125"/><stop style="stop-color:#3fb2e2;stop-opacity:1;" offset="0.710938"/><stop style="stop-color:#3fb3e3;stop-opacity:1;" offset="0.71875"/><stop style="stop-color:#3fb4e3;stop-opacity:1;" offset="0.726562"/><stop style="stop-color:#3fb4e4;stop-opacity:1;" offset="0.734375"/><stop style="stop-color:#3fb5e4;stop-opacity:1;" offset="0.742188"/><stop style="stop-color:#3fb6e4;stop-opacity:1;" offset="0.75"/><stop style="stop-color:#40b6e5;stop-opacity:1;" offset="0.757813"/><stop style="stop-color:#40b7e5;stop-opacity:1;" offset="0.765625"/><stop style="stop-color:#40b8e6;stop-opacity:1;" offset="0.773438"/><stop style="stop-color:#40b8e6;stop-opacity:1;" offset="0.78125"/><stop style="stop-color:#40b9e7;stop-opacity:1;" offset="0.789063"/><stop style="stop-color:#40bae7;stop-opacity:1;" offset="0.796875"/><stop style="stop-color:#40bae8;stop-opacity:1;" offset="0.804688"/><stop style="stop-color:#40bbe8;stop-opacity:1;" offset="0.8125"/><stop style="stop-color:#41bce8;stop-opacity:1;" offset="0.820313"/><stop style="stop-color:#41bce9;stop-opacity:1;" offset="0.828125"/><stop style="stop-color:#41bde9;stop-opacity:1;" offset="0.835938"/><stop style="stop-color:#41beea;stop-opacity:1;" offset="0.84375"/><stop style="stop-color:#41beea;stop-opacity:1;" offset="0.875"/><stop style="stop-color:#41beea;stop-opacity:1;" offset="1"/></linearGradient></defs><g id="c0d1fa7801"><rect x="0" width="375" y="0" height="374.999991" style="fill:#ffffff;fill-opacity:1;stroke:none;"/><rect x="0" width="375" y="0" height="374.999991" style="fill:#23242c;fill-opacity:1;stroke:none;"/><g clip-rule="nonzero" clip-path="url(#aca2ae6b56)"><g clip-rule="evenodd" clip-path="url(#b4460c152a)"><path style=" stroke:none;fill-rule:nonzero;fill:url(#linear0);" d="M 129 88.136719 L 129 217.824219 L 232.5 217.824219 L 232.5 88.136719 Z M 129 88.136719 "/></g></g><g style="fill:#ffffff;fill-opacity:1;"><g transform="translate(54.477285, 256.032816)"><path style="stroke:none" d="M 13.0625 -3.59375 L 5.25 -3.59375 L 3.765625 0 L -0.21875 0 L 7.265625 -16.796875 L 11.109375 -16.796875 L 18.625 0 L 14.546875 0 Z M 11.828125 -6.546875 L 9.171875 -12.984375 L 6.5 -6.546875 Z M 11.828125 -6.546875 "/></g></g><g style="fill:#ffffff;fill-opacity:1;"><g transform="translate(80.589313, 256.032816)"><path style="stroke:none" d="M 1.984375 -16.796875 L 5.875 -16.796875 L 5.875 0 L 1.984375 0 Z M 1.984375 -16.796875 "/></g></g><g style="fill:#ffffff;fill-opacity:1;"><g transform="translate(96.189314, 256.032816)"><path style="stroke:none" d=""/></g></g><g style="fill:#ffffff;fill-opacity:1;"><g transform="translate(110.709314, 256.032816)"><path style="stroke:none" d="M 1.984375 -16.796875 L 9.625 -16.796875 C 11.445312 -16.796875 13.054688 -16.445312 14.453125 -15.75 C 15.859375 -15.0625 16.945312 -14.082031 17.71875 -12.8125 C 18.5 -11.550781 18.890625 -10.082031 18.890625 -8.40625 C 18.890625 -6.71875 18.5 -5.242188 17.71875 -3.984375 C 16.945312 -2.722656 15.859375 -1.742188 14.453125 -1.046875 C 13.054688 -0.347656 11.445312 0 9.625 0 L 1.984375 0 Z M 9.4375 -3.1875 C 11.113281 -3.1875 12.453125 -3.65625 13.453125 -4.59375 C 14.453125 -5.53125 14.953125 -6.800781 14.953125 -8.40625 C 14.953125 -10 14.453125 -11.265625 13.453125 -12.203125 C 12.453125 -13.140625 11.113281 -13.609375 9.4375 -13.609375 L 5.875 -13.609375 L 5.875 -3.1875 Z M 9.4375 -3.1875 "/></g></g><g style="fill:#ffffff;fill-opacity:1;"><g transform="translate(138.261341, 256.032816)"><path style="stroke:none" d="M 1.984375 -16.796875 L 5.875 -16.796875 L 5.875 0 L 1.984375 0 Z M 1.984375 -16.796875 "/></g></g><g style="fill:#ffffff;fill-opacity:1;"><g transform="translate(153.861342, 256.032816)"><path style="stroke:none" d="M 12.703125 0 L 9.453125 -4.6875 L 5.875 -4.6875 L 5.875 0 L 1.984375 0 L 1.984375 -16.796875 L 9.265625 -16.796875 C 10.753906 -16.796875 12.046875 -16.546875 13.140625 -16.046875 C 14.234375 -15.554688 15.078125 -14.851562 15.671875 -13.9375 C 16.265625 -13.03125 16.5625 -11.953125 16.5625 -10.703125 C 16.5625 -9.453125 16.257812 -8.375 15.65625 -7.46875 C 15.0625 -6.570312 14.210938 -5.882812 13.109375 -5.40625 L 16.875 0 Z M 12.625 -10.703125 C 12.625 -11.648438 12.316406 -12.375 11.703125 -12.875 C 11.097656 -13.375 10.210938 -13.625 9.046875 -13.625 L 5.875 -13.625 L 5.875 -7.78125 L 9.046875 -7.78125 C 10.210938 -7.78125 11.097656 -8.035156 11.703125 -8.546875 C 12.316406 -9.054688 12.625 -9.773438 12.625 -10.703125 Z M 12.625 -10.703125 "/></g></g><g style="fill:#ffffff;fill-opacity:1;"><g transform="translate(179.229367, 256.032816)"><path style="stroke:none" d="M 15 -3.125 L 15 0 L 1.984375 0 L 1.984375 -16.796875 L 14.6875 -16.796875 L 14.6875 -13.6875 L 5.859375 -13.6875 L 5.859375 -10.03125 L 13.65625 -10.03125 L 13.65625 -7.015625 L 5.859375 -7.015625 L 5.859375 -3.125 Z M 15 -3.125 "/></g></g><g style="fill:#ffffff;fill-opacity:1;"><g transform="translate(203.061389, 256.032816)"><path style="stroke:none" d="M 10.03125 0.28125 C 8.320312 0.28125 6.773438 -0.0859375 5.390625 -0.828125 C 4.003906 -1.566406 2.914062 -2.597656 2.125 -3.921875 C 1.332031 -5.242188 0.9375 -6.738281 0.9375 -8.40625 C 0.9375 -10.0625 1.332031 -11.550781 2.125 -12.875 C 2.914062 -14.195312 4.003906 -15.226562 5.390625 -15.96875 C 6.773438 -16.71875 8.332031 -17.09375 10.0625 -17.09375 C 11.507812 -17.09375 12.820312 -16.832031 14 -16.3125 C 15.175781 -15.800781 16.164062 -15.066406 16.96875 -14.109375 L 14.46875 -11.8125 C 13.332031 -13.125 11.925781 -13.78125 10.25 -13.78125 C 9.207031 -13.78125 8.273438 -13.550781 7.453125 -13.09375 C 6.640625 -12.632812 6.003906 -11.992188 5.546875 -11.171875 C 5.097656 -10.359375 4.875 -9.4375 4.875 -8.40625 C 4.875 -7.363281 5.097656 -6.429688 5.546875 -5.609375 C 6.003906 -4.796875 6.640625 -4.160156 7.453125 -3.703125 C 8.273438 -3.253906 9.207031 -3.03125 10.25 -3.03125 C 11.925781 -3.03125 13.332031 -3.691406 14.46875 -5.015625 L 16.96875 -2.71875 C 16.164062 -1.738281 15.171875 -0.992188 13.984375 -0.484375 C 12.804688 0.0234375 11.488281 0.28125 10.03125 0.28125 Z M 10.03125 0.28125 "/></g></g><g style="fill:#ffffff;fill-opacity:1;"><g transform="translate(228.381417, 256.032816)"><path style="stroke:none" d="M 5.46875 -13.625 L 0.09375 -13.625 L 0.09375 -16.796875 L 14.734375 -16.796875 L 14.734375 -13.625 L 9.359375 -13.625 L 9.359375 0 L 5.46875 0 Z M 5.46875 -13.625 "/></g></g><g style="fill:#ffffff;fill-opacity:1;"><g transform="translate(250.941428, 256.032816)"><path style="stroke:none" d="M 10.125 0.28125 C 8.382812 0.28125 6.8125 -0.09375 5.40625 -0.84375 C 4.007812 -1.59375 2.914062 -2.625 2.125 -3.9375 C 1.332031 -5.257812 0.9375 -6.75 0.9375 -8.40625 C 0.9375 -10.050781 1.332031 -11.53125 2.125 -12.84375 C 2.914062 -14.164062 4.007812 -15.203125 5.40625 -15.953125 C 6.8125 -16.710938 8.382812 -17.09375 10.125 -17.09375 C 11.875 -17.09375 13.441406 -16.710938 14.828125 -15.953125 C 16.222656 -15.203125 17.316406 -14.164062 18.109375 -12.84375 C 18.910156 -11.53125 19.3125 -10.050781 19.3125 -8.40625 C 19.3125 -6.75 18.910156 -5.257812 18.109375 -3.9375 C 17.316406 -2.625 16.222656 -1.59375 14.828125 -0.84375 C 13.441406 -0.09375 11.875 0.28125 10.125 0.28125 Z M 10.125 -3.03125 C 11.113281 -3.03125 12.007812 -3.253906 12.8125 -3.703125 C 13.613281 -4.160156 14.242188 -4.796875 14.703125 -5.609375 C 15.160156 -6.429688 15.390625 -7.363281 15.390625 -8.40625 C 15.390625 -9.4375 15.160156 -10.359375 14.703125 -11.171875 C 14.242188 -11.992188 13.613281 -12.632812 12.8125 -13.09375 C 12.007812 -13.550781 11.113281 -13.78125 10.125 -13.78125 C 9.132812 -13.78125 8.238281 -13.550781 7.4375 -13.09375 C 6.632812 -12.632812 6.003906 -11.992188 5.546875 -11.171875 C 5.097656 -10.359375 4.875 -9.4375 4.875 -8.40625 C 4.875 -7.363281 5.097656 -6.429688 5.546875 -5.609375 C 6.003906 -4.796875 6.632812 -4.160156 7.4375 -3.703125 C 8.238281 -3.253906 9.132812 -3.03125 10.125 -3.03125 Z M 10.125 -3.03125 "/></g></g><g style="fill:#ffffff;fill-opacity:1;"><g transform="translate(278.925481, 256.032816)"><path style="stroke:none" d="M 12.703125 0 L 9.453125 -4.6875 L 5.875 -4.6875 L 5.875 0 L 1.984375 0 L 1.984375 -16.796875 L 9.265625 -16.796875 C 10.753906 -16.796875 12.046875 -16.546875 13.140625 -16.046875 C 14.234375 -15.554688 15.078125 -14.851562 15.671875 -13.9375 C 16.265625 -13.03125 16.5625 -11.953125 16.5625 -10.703125 C 16.5625 -9.453125 16.257812 -8.375 15.65625 -7.46875 C 15.0625 -6.570312 14.210938 -5.882812 13.109375 -5.40625 L 16.875 0 Z M 12.625 -10.703125 C 12.625 -11.648438 12.316406 -12.375 11.703125 -12.875 C 11.097656 -13.375 10.210938 -13.625 9.046875 -13.625 L 5.875 -13.625 L 5.875 -7.78125 L 9.046875 -7.78125 C 10.210938 -7.78125 11.097656 -8.035156 11.703125 -8.546875 C 12.316406 -9.054688 12.625 -9.773438 12.625 -10.703125 Z M 12.625 -10.703125 "/></g></g><g style="fill:#ffffff;fill-opacity:1;"><g transform="translate(304.293507, 256.032816)"><path style="stroke:none" d="M 10.0625 -5.953125 L 10.0625 0 L 6.171875 0 L 6.171875 -6 L -0.34375 -16.796875 L 3.796875 -16.796875 L 8.28125 -9.34375 L 12.765625 -16.796875 L 16.578125 -16.796875 Z M 10.0625 -5.953125 "/></g></g><g style="fill:#ffffff;fill-opacity:1;"><g transform="translate(90.217521, 295.350098)"><path style="stroke:none" d="M 10.03125 0.28125 C 8.320312 0.28125 6.773438 -0.0859375 5.390625 -0.828125 C 4.003906 -1.566406 2.914062 -2.597656 2.125 -3.921875 C 1.332031 -5.242188 0.9375 -6.738281 0.9375 -8.40625 C 0.9375 -10.0625 1.332031 -11.550781 2.125 -12.875 C 2.914062 -14.195312 4.003906 -15.226562 5.390625 -15.96875 C 6.773438 -16.71875 8.332031 -17.09375 10.0625 -17.09375 C 11.507812 -17.09375 12.820312 -16.832031 14 -16.3125 C 15.175781 -15.800781 16.164062 -15.066406 16.96875 -14.109375 L 14.46875 -11.8125 C 13.332031 -13.125 11.925781 -13.78125 10.25 -13.78125 C 9.207031 -13.78125 8.273438 -13.550781 7.453125 -13.09375 C 6.640625 -12.632812 6.003906 -11.992188 5.546875 -11.171875 C 5.097656 -10.359375 4.875 -9.4375 4.875 -8.40625 C 4.875 -7.363281 5.097656 -6.429688 5.546875 -5.609375 C 6.003906 -4.796875 6.640625 -4.160156 7.453125 -3.703125 C 8.273438 -3.253906 9.207031 -3.03125 10.25 -3.03125 C 11.925781 -3.03125 13.332031 -3.691406 14.46875 -5.015625 L 16.96875 -2.71875 C 16.164062 -1.738281 15.171875 -0.992188 13.984375 -0.484375 C 12.804688 0.0234375 11.488281 0.28125 10.03125 0.28125 Z M 10.03125 0.28125 "/></g></g><g style="fill:#ffffff;fill-opacity:1;"><g transform="translate(126.385553, 295.350098)"><path style="stroke:none" d="M 15 -3.125 L 15 0 L 1.984375 0 L 1.984375 -16.796875 L 14.6875 -16.796875 L 14.6875 -13.6875 L 5.859375 -13.6875 L 5.859375 -10.03125 L 13.65625 -10.03125 L 13.65625 -7.015625 L 5.859375 -7.015625 L 5.859375 -3.125 Z M 15 -3.125 "/></g></g><g style="fill:#ffffff;fill-opacity:1;"><g transform="translate(161.065577, 295.350098)"><path style="stroke:none" d="M 17.40625 -16.796875 L 17.40625 0 L 14.203125 0 L 5.828125 -10.203125 L 5.828125 0 L 1.984375 0 L 1.984375 -16.796875 L 5.203125 -16.796875 L 13.5625 -6.59375 L 13.5625 -16.796875 Z M 17.40625 -16.796875 "/></g></g><g style="fill:#ffffff;fill-opacity:1;"><g transform="translate(199.033604, 295.350098)"><path style="stroke:none" d="M 5.46875 -13.625 L 0.09375 -13.625 L 0.09375 -16.796875 L 14.734375 -16.796875 L 14.734375 -13.625 L 9.359375 -13.625 L 9.359375 0 L 5.46875 0 Z M 5.46875 -13.625 "/></g></g><g style="fill:#ffffff;fill-opacity:1;"><g transform="translate(232.44163, 295.350098)"><path style="stroke:none" d="M 15 -3.125 L 15 0 L 1.984375 0 L 1.984375 -16.796875 L 14.6875 -16.796875 L 14.6875 -13.6875 L 5.859375 -13.6875 L 5.859375 -10.03125 L 13.65625 -10.03125 L 13.65625 -7.015625 L 5.859375 -7.015625 L 5.859375 -3.125 Z M 15 -3.125 "/></g></g><g style="fill:#ffffff;fill-opacity:1;"><g transform="translate(267.121654, 295.350098)"><path style="stroke:none" d="M 12.703125 0 L 9.453125 -4.6875 L 5.875 -4.6875 L 5.875 0 L 1.984375 0 L 1.984375 -16.796875 L 9.265625 -16.796875 C 10.753906 -16.796875 12.046875 -16.546875 13.140625 -16.046875 C 14.234375 -15.554688 15.078125 -14.851562 15.671875 -13.9375 C 16.265625 -13.03125 16.5625 -11.953125 16.5625 -10.703125 C 16.5625 -9.453125 16.257812 -8.375 15.65625 -7.46875 C 15.0625 -6.570312 14.210938 -5.882812 13.109375 -5.40625 L 16.875 0 Z M 12.625 -10.703125 C 12.625 -11.648438 12.316406 -12.375 11.703125 -12.875 C 11.097656 -13.375 10.210938 -13.625 9.046875 -13.625 L 5.875 -13.625 L 5.875 -7.78125 L 9.046875 -7.78125 C 10.210938 -7.78125 11.097656 -8.035156 11.703125 -8.546875 C 12.316406 -9.054688 12.625 -9.773438 12.625 -10.703125 Z M 12.625 -10.703125 "/></g></g></g></svg>